PathFileType	4	(X/Y/Z)	C:/Users/opensim2020/Desktop/walking_exp_matlab/subject01_walking07_straight_02.trc	
DataRate	CameraRate	NumFrames	NumMarkers	Units	OrigDataRate	OrigDataStartFrame	OrigNumFrames	
100.00	100.00	8	43	mm	100.00	1584	178	
Frame#	Time	LFHD			RFHD			LBHD			RBHD			C7			T10			CLAV			STRN			RBAK			LSHO			LUPA			LELB			LFRM			LWRA			LWRB			LFIN			RSHO			RUPA			RELB			RFRM			RWRA			RWRB			RFIN			LASI			RASI			LPSI			RPSI			LTHI			LKNE			LTIB			LANK			LHEE			LTOE			RTHI			RKNE			RTIB			RANK			RHEE			RTOE			*39			*40			*41			*42			
		X1	Y1	Z1	X2	Y2	Z2	X3	Y3	Z3	X4	Y4	Z4	X5	Y5	Z5	X6	Y6	Z6	X7	Y7	Z7	X8	Y8	Z8	X9	Y9	Z9	X10	Y10	Z10	X11	Y11	Z11	X12	Y12	Z12	X13	Y13	Z13	X14	Y14	Z14	X15	Y15	Z15	X16	Y16	Z16	X17	Y17	Z17	X18	Y18	Z18	X19	Y19	Z19	X20	Y20	Z20	X21	Y21	Z21	X22	Y22	Z22	X23	Y23	Z23	X24	Y24	Z24	X25	Y25	Z25	X26	Y26	Z26	X27	Y27	Z27	X28	Y28	Z28	X29	Y29	Z29	X30	Y30	Z30	X31	Y31	Z31	X32	Y32	Z32	X33	Y33	Z33	X34	Y34	Z34	X35	Y35	Z35	X36	Y36	Z36	X37	Y37	Z37	X38	Y38	Z38	X39	Y39	Z39	X40	Y40	Z40	X41	Y41	Z41	X42	Y42	Z42	X43	Y43	Z43	

156	1.550	-955.13361	-533.95447	1659.68579	-1060.33142	-579.58667	1669.37219	-1000.28925	-422.71918	1619.95044	-1111.67993	-468.29303	1630.36169	-1046.47070	-392.92346	1424.29700	-1062.70947	-365.10382	1130.47144	-1030.75024	-539.55829	1362.05737	-1028.24719	-586.85345	1208.83972	-1136.47644	-352.49191	1233.31079	-876.67572	-458.58655	1382.43054	-801.61938	-421.34058	1194.49182	-810.28699	-402.40320	1046.11816	-784.88934	-427.74045	935.38934	-804.68835	-492.13202	810.06885	-777.81958	-437.93646	813.38702	-775.73828	-473.96786	734.55737	-1188.01672	-493.95007	1395.10864	-1300.66541	-451.81592	1198.34875	-1306.28967	-456.38553	1071.67139	-1335.66687	-505.01578	959.19330	-1314.63501	-605.85852	860.94379	-1352.97485	-562.93042	851.52820	-1347.86182	-614.34875	782.16150	-945.33966	-541.28607	931.04285	-1163.23621	-545.15588	925.86945	-1000.83899	-354.85202	936.30939	-1145.92017	-359.75690	935.30743	-892.29132	-558.70483	603.93628	-912.63544	-575.97632	471.54971	-905.69672	-536.00769	284.43472	-962.58447	-522.77948	68.51269	-1016.36755	-479.78564	38.85575	-952.49841	-670.26410	31.71497	-1237.07727	-505.02679	588.52338	-1227.99707	-504.80878	430.55539	-1236.06860	-351.79474	344.09372	-1197.55151	-191.67380	212.71335	-1140.54553	-143.73552	230.76294	-1195.61560	-210.72012	67.03824	-1039.57544	-562.19434	1702.32471	-3102.79028	1972.87317	1023.87280	-3138.08936	2013.19861	1022.46643			 
157	1.560	-953.17853	-543.33990	1660.25586	-1058.26575	-589.14435	1670.07239	-998.59082	-432.17563	1620.59851	-1109.83276	-477.97311	1631.08582	-1045.29797	-402.35419	1425.28662	-1060.62231	-374.33768	1131.28076	-1029.28479	-549.32983	1362.76563	-1026.77039	-596.22345	1209.37671	-1134.33435	-361.73203	1234.13538	-875.02667	-468.37784	1383.04492	-799.17731	-432.46072	1195.41492	-807.17706	-414.61707	1046.49890	-781.24017	-442.44119	936.17218	-800.51794	-510.06351	812.58514	-773.93640	-455.71701	814.57568	-771.39716	-494.16476	736.59717	-1186.37756	-503.52115	1395.57202	-1298.84473	-460.77084	1198.82471	-1304.25391	-464.51239	1072.20581	-1333.88721	-510.72061	958.98712	-1312.82556	-609.71204	858.49811	-1351.24976	-566.54230	850.07971	-1345.68164	-616.09430	779.26965	-943.70587	-550.44427	931.36060	-1161.79810	-554.24585	926.81006	-999.13647	-363.88666	936.67700	-1144.16272	-368.84106	934.98474	-890.88770	-564.42206	603.44257	-911.51465	-579.96021	470.80371	-904.88525	-538.53760	284.11087	-962.65192	-523.01801	68.69757	-1016.37732	-479.88242	39.11820	-952.56305	-670.50037	31.53080	-1235.08826	-520.60101	589.98334	-1226.51746	-524.64862	432.24850	-1234.48047	-371.65738	346.26654	-1195.83826	-209.72664	217.48776	-1137.59045	-162.22736	233.65489	-1197.96265	-229.47765	71.95602	-1037.52283	-571.74261	1703.02856	-3102.11597	1973.13965	1023.98560	-3138.28906	2013.11499	1022.41382			 
158	1.570	-951.39111	-552.66534	1660.73767	-1056.25378	-598.74060	1670.68164	-997.00366	-441.61334	1621.20129	-1108.18103	-487.69656	1631.71851	-1042.40686	-412.18771	1425.74060	-1058.56079	-383.46921	1132.04102	-1027.81018	-558.70282	1363.15979	-1025.38989	-605.61176	1209.80078	-1132.18750	-370.83356	1234.89636	-873.50684	-478.21603	1383.64441	-797.12524	-443.63138	1196.28882	-803.90643	-426.23718	1046.86230	-777.66382	-457.07953	937.09973	-796.36633	-528.10071	815.39923	-769.79626	-473.81305	815.80713	-766.88043	-514.25092	739.25250	-1184.83057	-512.96051	1396.03101	-1296.97095	-469.50223	1199.16895	-1302.41382	-472.55902	1072.74146	-1332.04346	-516.44580	958.83264	-1311.07983	-613.45935	856.21222	-1349.84265	-570.10651	848.82648	-1343.60083	-617.89117	776.57471	-942.01190	-559.44354	931.70026	-1160.35022	-563.41254	927.71735	-997.56482	-372.81915	937.00452	-1142.46887	-377.95361	934.69598	-889.61926	-570.19348	602.90826	-910.44855	-584.38318	470.13721	-904.29761	-541.64288	283.82156	-962.66284	-523.49951	68.73479	-1016.36676	-480.06979	39.39746	-952.62305	-670.79669	31.44818	-1233.87830	-536.43457	591.67218	-1224.91443	-544.32367	434.37662	-1232.97144	-391.39252	348.64667	-1193.94922	-229.08754	220.73503	-1135.14148	-181.36804	235.65865	-1200.03540	-249.99680	75.74268	-1035.64697	-581.39429	1703.71655	-3102.23560	1973.19434	1023.99243	-3138.53979	2013.14819	1022.18677			 
159	1.580	-949.61371	-562.03564	1661.32751	-1054.46313	-608.33228	1671.23059	-995.59375	-451.04614	1621.72852	-1106.58264	-497.37079	1632.34546	-1041.94666	-421.28571	1426.57532	-1056.56604	-392.50015	1132.73792	-1026.48096	-568.28320	1363.54846	-1024.10803	-614.84644	1210.08765	-1130.10767	-379.93216	1235.60815	-872.05255	-487.96594	1384.21619	-795.10913	-454.62177	1197.14722	-800.72791	-438.04456	1047.13257	-774.12402	-471.60089	938.13837	-792.21265	-546.16150	818.58405	-765.89423	-491.63528	817.43903	-762.09265	-534.62402	742.55695	-1183.47498	-522.30573	1396.38293	-1295.12183	-478.00870	1199.44995	-1300.61890	-480.50574	1073.24585	-1330.23254	-522.21844	958.80139	-1309.46472	-617.20532	854.14862	-1348.06360	-573.80707	847.78552	-1341.61682	-619.74792	774.13586	-940.08966	-568.69183	932.03345	-1158.75610	-572.51160	928.57294	-996.17920	-381.66888	937.22412	-1141.07153	-386.98471	934.55536	-888.58606	-576.00897	602.35138	-909.63580	-588.85577	469.44379	-903.78192	-544.89606	283.51096	-962.66187	-523.81323	68.86241	-1016.34802	-480.21875	39.71414	-952.70636	-671.03192	31.31764	-1232.05334	-551.99139	593.45013	-1223.27917	-563.85376	436.70114	-1231.00452	-411.27957	350.75101	-1192.65210	-248.86845	223.08501	-1133.27429	-200.43874	236.11472	-1201.81189	-271.89847	78.73640	-1033.84338	-590.93964	1704.25623	-3101.76587	1973.18506	1024.02368	-3138.40112	2013.07092	1022.31909			 
160	1.590	-947.98193	-571.42798	1661.78918	-1052.81519	-617.91559	1671.70984	-994.25110	-460.52704	1622.26343	-1105.12927	-507.08112	1632.93530	-1040.33215	-430.67532	1427.14746	-1054.76917	-401.51331	1133.38025	-1025.26880	-577.76709	1363.89661	-1022.91772	-624.01831	1210.31055	-1128.14612	-388.95209	1236.22998	-870.70520	-497.62210	1384.83386	-793.27924	-465.24811	1198.05566	-797.68634	-449.91724	1047.48291	-770.63104	-485.96136	939.35919	-788.13885	-564.05194	822.12231	-762.42914	-509.38705	819.46509	-757.45123	-554.79474	746.12262	-1182.11584	-531.52313	1396.70825	-1293.35840	-486.33099	1199.72290	-1298.82922	-488.08075	1073.70142	-1328.39465	-527.85455	958.73895	-1308.02686	-620.97076	852.34094	-1346.74341	-577.38177	846.87036	-1339.80688	-621.68707	771.99390	-938.50165	-576.53943	931.92889	-1157.08740	-581.70001	929.39655	-994.96313	-390.46185	937.44037	-1139.81311	-396.10736	934.74396	-887.64813	-581.84821	601.87506	-908.92615	-593.29688	468.76782	-903.27869	-547.95569	283.08429	-962.65613	-524.48346	68.97086	-1016.38525	-480.38086	40.03848	-952.88135	-671.21497	31.20486	-1230.38879	-567.63635	595.19196	-1221.58569	-583.10638	439.10828	-1228.97791	-430.86270	353.01834	-1191.60461	-269.21835	223.99255	-1132.04431	-220.31720	235.34058	-1203.13635	-295.16202	80.74438	-1032.09424	-600.45325	1704.66699	-3102.37866	1973.05164	1023.91864	-3138.41431	2013.06787	1022.25983			 
161	1.600	-946.52869	-580.87103	1662.18054	-1051.27332	-627.58679	1672.16077	-993.02747	-470.02798	1622.77039	-1103.70081	-516.79303	1633.42700	-1038.48804	-440.44199	1427.65637	-1053.06702	-410.45715	1134.01196	-1024.08667	-587.14941	1364.22070	-1021.75488	-633.05157	1210.52917	-1126.22449	-397.95731	1236.74939	-869.38934	-507.29150	1385.37170	-791.57111	-475.62701	1198.81543	-794.58948	-461.38858	1047.94751	-767.21509	-500.18167	940.71320	-784.23871	-581.73395	825.90302	-758.82196	-527.13831	821.63232	-752.96515	-575.12909	749.89514	-1180.94299	-540.61755	1397.12939	-1291.74268	-494.40918	1200.05078	-1297.00903	-495.31293	1074.11621	-1326.93372	-533.43408	958.94934	-1306.61865	-624.73297	850.87207	-1345.35400	-581.10413	846.19659	-1338.16199	-623.82568	770.13251	-936.50171	-585.33966	932.33301	-1155.26770	-590.94684	930.20245	-993.90955	-399.20227	937.66510	-1138.72144	-405.38846	935.13904	-886.82678	-587.68036	601.46021	-908.26031	-597.74591	468.09482	-902.77472	-550.89838	282.62473	-962.58362	-524.45563	69.11715	-1016.29486	-480.43295	40.38673	-952.88568	-671.41858	31.12995	-1228.87146	-583.47174	596.79785	-1219.87329	-602.13055	441.44641	-1227.09265	-450.58405	354.61691	-1190.79224	-290.04468	223.74535	-1131.32141	-239.91785	233.25679	-1203.96619	-319.64908	81.67311	-1030.45630	-610.04425	1705.09851	-3102.24121	1973.05554	1024.10620	-3138.10718	2013.18640	1022.56860			 
162	1.610	-945.15942	-590.29956	1662.60828	-1049.71509	-637.23547	1672.51807	-991.84369	-479.53247	1623.27869	-1102.48340	-526.49213	1633.94775	-1037.05103	-449.57935	1428.24963	-1051.44763	-419.27560	1134.42578	-1022.97943	-596.45007	1364.54407	-1020.55005	-642.07953	1210.79700	-1124.48389	-406.97003	1237.23804	-868.18231	-516.77405	1385.99475	-789.91357	-485.64938	1199.61194	-791.51886	-472.43808	1048.53662	-763.94098	-514.30090	942.24847	-780.35083	-599.38507	830.07379	-755.23431	-544.82037	824.06158	-748.35052	-595.05939	754.36877	-1179.81140	-549.70044	1397.42615	-1290.14185	-502.26852	1200.37732	-1295.08301	-502.28934	1074.45825	-1325.44812	-538.92822	959.03906	-1305.27417	-628.59174	849.50763	-1344.15149	-584.91986	845.68207	-1336.60852	-626.18616	768.62494	-934.55640	-593.96802	932.71875	-1153.37793	-600.09650	930.93604	-992.92548	-407.89392	937.90759	-1137.84070	-414.70670	935.61731	-885.97095	-593.60925	601.17316	-907.53619	-602.11731	467.48013	-902.20123	-553.68365	282.33658	-962.54376	-524.96606	69.06338	-1016.51160	-480.69598	40.83216	-952.87341	-671.54047	31.05423	-1227.21021	-598.98096	598.58618	-1218.20544	-620.81226	443.73840	-1225.43945	-470.24551	355.78015	-1190.20215	-311.28775	222.39688	-1131.20654	-260.13013	229.84528	-1204.51282	-345.83893	81.97437	-1029.05981	-619.71075	1705.58264	-3102.63574	1972.91052	1024.01843	-3138.15234	2013.20129	1022.34296			 
163	1.620	-943.90057	-599.79181	1662.92346	-1048.37292	-646.90436	1672.79333	-990.73987	-489.05676	1623.81555	-1101.32166	-536.21979	1634.38757	-1035.20471	-458.68588	1428.73975	-1050.04419	-428.24252	1135.00500	-1021.96979	-605.96234	1364.96179	-1019.36853	-651.05182	1211.03918	-1122.89185	-415.91748	1237.67749	-866.98694	-526.23566	1386.58545	-788.29437	-495.42349	1200.38501	-788.47687	-483.15616	1049.02588	-760.73242	-528.30188	943.81409	-776.68518	-616.70264	834.48151	-751.53680	-562.42944	826.61591	-743.88611	-614.99323	759.14465	-1178.49414	-558.72797	1397.72180	-1288.91284	-509.83786	1200.77991	-1293.29614	-509.16885	1074.93066	-1323.77966	-544.38861	959.26123	-1303.96826	-632.51965	848.38281	-1342.87976	-588.80786	845.43854	-1335.17871	-628.81134	767.36694	-932.57288	-602.49872	933.19025	-1151.46887	-609.24371	931.69183	-992.11078	-416.64325	938.23260	-1137.03674	-424.06989	936.27673	-885.09888	-599.41943	600.89276	-906.76013	-606.14337	466.95251	-901.66541	-556.32886	282.21344	-962.36761	-524.87970	69.28497	-1017.10315	-481.69656	41.13299	-952.80676	-671.64221	31.00551	-1225.41089	-614.13409	600.41235	-1216.57971	-638.98657	446.09329	-1224.10632	-489.87064	356.26010	-1189.79541	-332.91968	219.94356	-1131.34888	-280.39529	225.49339	-1204.64600	-373.35980	81.84048	-1027.73425	-629.47882	1705.89270	-3102.12427	1973.10632	1024.11633	-3138.19434	2013.18372	1022.33026			 
